<svg width="171" height="171" viewBox="0 0 171 171" fill="none" xmlns="http://www.w3.org/2000/svg">
<path d="M96.4547 143.713C97.6236 147.988 102.032 150.493 106.307 149.324C110.582 148.155 113.087 143.747 111.918 139.472L110.415 133.995C108.578 127.248 105.773 120.869 102.166 114.991C101.13 113.354 101.097 111.284 102.032 109.58C102.967 107.877 104.771 106.842 106.708 106.842H149.625C155.537 106.842 160.312 102.066 160.312 96.1541C160.312 92.3801 158.342 89.0402 155.37 87.1365C152.965 85.6002 152.197 82.4941 153.599 80.0227C154.468 78.4863 154.969 76.6828 154.969 74.7791C154.969 70.6377 152.631 67.0641 149.191 65.2605C147.788 64.5258 146.753 63.2232 146.419 61.6535C146.085 60.0838 146.452 58.4807 147.421 57.2449C148.823 55.4414 149.658 53.1703 149.658 50.7322C149.658 45.9896 146.586 41.9484 142.277 40.5791C139.672 39.7441 138.136 37.0389 138.704 34.367C138.871 33.6322 138.938 32.8641 138.938 32.0625C138.938 26.151 134.162 21.375 128.25 21.375H98.3584C93.0814 21.375 87.9381 22.9447 83.5295 25.8504L70.6711 34.4338C67.6652 36.4377 65.127 39.0094 63.1898 41.9818C61.5533 44.4533 58.2469 45.1213 55.7754 43.5182C53.3039 41.915 52.6359 38.5752 54.2391 36.1037C56.9443 31.9957 60.4846 28.3887 64.7262 25.5498L77.5846 16.9664C83.7299 12.8584 90.9439 10.6875 98.325 10.6875H128.25C140.04 10.6875 149.625 20.2729 149.625 32.0625V32.2629C156.004 35.9701 160.312 42.8502 160.312 50.7656C160.312 53.6713 159.711 56.4768 158.676 59.015C162.951 62.9227 165.656 68.5336 165.656 74.8125C165.656 76.9834 165.322 79.0875 164.721 81.058C168.595 84.9322 171 90.276 171 96.1875C171 107.977 161.415 117.563 149.625 117.563H115.692C117.763 121.938 119.466 126.48 120.735 131.222L122.238 136.7C124.944 146.653 119.065 156.939 109.113 159.678C99.16 162.417 88.8732 156.505 86.1346 146.552L84.6316 141.075C81.6592 130.187 74.7457 120.769 65.1937 114.69L64.1584 114.022C60.2174 111.517 56.9109 108.311 54.3059 104.604C52.6025 102.199 53.2037 98.8594 55.6418 97.1561C58.0799 95.4527 61.3863 96.0539 63.0896 98.492C64.8932 101.064 67.1643 103.301 69.9029 105.005L70.9383 105.673C82.7279 113.154 91.2779 124.777 94.9518 138.236L96.4547 143.713ZM10.6875 117.563H32.0625V42.75H10.6875V117.563ZM0 117.563V42.75C0 36.8385 4.77598 32.0625 10.6875 32.0625H32.0625C37.974 32.0625 42.75 36.8385 42.75 42.75V117.563C42.75 123.474 37.974 128.25 32.0625 128.25H10.6875C4.77598 128.25 0 123.474 0 117.563Z" fill="white"/>
</svg>
