<svg width="171" height="171" viewBox="0 0 171 171" fill="none" xmlns="http://www.w3.org/2000/svg">
<g clip-path="url(#clip0_2_99)">
<path d="M96.4547 27.2865C97.6236 23.0115 102.032 20.5066 106.307 21.6756C110.582 22.8445 113.087 27.2531 111.918 31.5281L110.415 37.0055C108.578 43.752 105.773 50.1311 102.166 56.0092C101.13 57.6457 101.097 59.7164 102.032 61.4197C102.967 63.123 104.771 64.1584 106.708 64.1584H149.625C155.537 64.1584 160.312 68.9344 160.312 74.8459C160.312 78.6199 158.342 81.9598 155.37 83.8635C152.965 85.3998 152.197 88.5059 153.599 90.9773C154.468 92.5137 154.969 94.3172 154.969 96.2209C154.969 100.362 152.631 103.936 149.191 105.739C147.788 106.474 146.753 107.777 146.419 109.346C146.085 110.916 146.452 112.519 147.421 113.755C148.823 115.559 149.658 117.83 149.658 120.268C149.658 125.01 146.586 129.052 142.277 130.421C139.672 131.289 138.136 133.961 138.704 136.633C138.871 137.368 138.938 138.136 138.938 138.938C138.938 144.849 134.162 149.625 128.25 149.625H98.3584C93.0814 149.625 87.9381 148.055 83.5295 145.15L70.6711 136.566C67.6652 134.562 65.127 131.991 63.1898 129.018C61.5533 126.547 58.2469 125.879 55.7754 127.482C53.3039 129.085 52.6359 132.425 54.2391 134.896C56.9443 139.004 60.4846 142.611 64.7262 145.45L77.5846 154.034C83.7299 158.142 90.9439 160.312 98.325 160.312H128.25C140.04 160.312 149.625 150.727 149.625 138.938V138.737C156.004 135.03 160.312 128.15 160.312 120.234C160.312 117.329 159.711 114.523 158.676 111.985C162.951 108.077 165.656 102.466 165.656 96.1875C165.656 94.0166 165.322 91.9125 164.721 89.942C168.595 86.0678 171 80.724 171 74.8125C171 63.0229 161.415 53.4375 149.625 53.4375H115.692C117.763 49.0623 119.466 44.5201 120.735 39.7775L122.238 34.3002C124.944 24.3475 119.065 14.0607 109.113 11.3221C99.16 8.5834 88.8732 14.4949 86.1346 24.4477L84.6316 29.925C81.6592 40.8129 74.7457 50.2313 65.1937 56.3098L64.1584 56.9777C60.2174 59.4826 56.9109 62.6889 54.3059 66.3961C52.6025 68.8008 53.2037 72.1406 55.6418 73.8439C58.0799 75.5473 61.3863 74.9461 63.0896 72.508C64.8932 69.9363 67.1643 67.6986 69.9029 65.9953L70.9383 65.3273C82.7279 57.8461 91.2779 46.2234 94.9518 32.7639L96.4547 27.2865ZM10.6875 74.8125H32.0625V149.625H10.6875V74.8125ZM0 74.8125V149.625C0 155.537 4.77598 160.312 10.6875 160.312H32.0625C37.974 160.312 42.75 155.537 42.75 149.625V74.8125C42.75 68.901 37.974 64.125 32.0625 64.125H10.6875C4.77598 64.125 0 68.901 0 74.8125Z" fill="white"/>
</g>
<defs>
<clipPath id="clip0_2_99">
<rect width="171" height="171" fill="white"/>
</clipPath>
</defs>
</svg>
