<?xml version="1.0" encoding="UTF-8" standalone="no"?>
<svg
   viewBox="0 0 48 48"
   version="1.1"
   id="svg67"
   sodipodi:docname="false.svg"
   inkscape:version="1.1.1 (3bf5ae0d25, 2021-09-20)"
   xmlns:inkscape="http://www.inkscape.org/namespaces/inkscape"
   xmlns:sodipodi="http://sodipodi.sourceforge.net/DTD/sodipodi-0.dtd"
   xmlns="http://www.w3.org/2000/svg"
   xmlns:svg="http://www.w3.org/2000/svg"
   xmlns:rdf="http://www.w3.org/1999/02/22-rdf-syntax-ns#"
   xmlns:cc="http://creativecommons.org/ns#"
   xmlns:dc="http://purl.org/dc/elements/1.1/">
  <sodipodi:namedview
     id="namedview69"
     pagecolor="#505050"
     bordercolor="#eeeeee"
     borderopacity="1"
     inkscape:pageshadow="0"
     inkscape:pageopacity="0"
     inkscape:pagecheckerboard="0"
     showgrid="false"
     inkscape:zoom="16.3125"
     inkscape:cx="24"
     inkscape:cy="24"
     inkscape:window-width="1920"
     inkscape:window-height="1001"
     inkscape:window-x="-9"
     inkscape:window-y="-9"
     inkscape:window-maximized="1"
     inkscape:current-layer="svg67" />
  <defs
     id="defs42">
    <style
       id="style40">.cls-1{fill:#f6ccaf;}.cls-2{fill:#ffdec7;}.cls-3{fill:#edb996;}.cls-4{fill:#6fabe6;}.cls-5{fill:#82bcf4;}.cls-6{fill:#edebf2;}</style>
  </defs>
  <title
     id="title44">like (tumbsup)</title>
  <g
     id="like_tumbsup_"
     data-name="like (tumbsup)"
     transform="matrix(1,0,0,-1,7.0680755e-7,48.315714)">
    <path
       class="cls-1"
       d="M 46.12,31.12 A 3.76,3.76 0 0 1 43,32 3,3 0 0 1 45.12,37.12 C 44.05,38.19 43,38 41,38 a 3,3 0 0 1 0,6 C 24.25,44 23.27,44.47 17,42 V 21 c 3.34,-1.67 5.62,-2.54 7.91,-5.39 2.47,-3.07 2.76,-5.64 3.68,-9.76 C 29.31,2.68 35,4.73 35,9.19 A 20.94,20.94 0 0 1 32,20 v 0 c 10.78,0 11,-0.29 12.12,0.88 A 3,3 0 0 1 42,26 h 2 a 3,3 0 0 1 2.12,5.12 z"
       id="path46" />
    <path
       class="cls-2"
       d="M 46.12,31.12 A 3.76,3.76 0 0 1 43,32 3,3 0 0 1 43,38 H 41 A 3,3 0 0 1 43.87,41.87 3.1,3.1 0 0 1 43,42 C 29,42 19,42.86 19,38 V 20 C 31.23,14 26.11,4.28 30.54,4.28 A 4.9,4.9 0 0 1 35,9.19 20.94,20.94 0 0 1 32,20 c 0,0.1 -0.29,0 10,0 a 3,3 0 0 1 0,6 c 1.79,0 3.16,-0.23 4.23,1 a 3,3 0 0 1 -0.11,4.12 z"
       id="path48" />
    <path
       class="cls-3"
       d="m 44,32 h -1 a 2.94,2.94 0 0 1 2.23,1 H 37 a 1,1 0 0 1 0,-2 h 9.23 A 3,3 0 0 1 44,32 Z"
       id="path50" />
    <path
       class="cls-3"
       d="m 41,38 a 3,3 0 0 1 2.12,0.88 C 43.29,39.05 44.12,39 37,39 a 1,1 0 0 1 0,-2 c 9.12,0 8.29,0 8.12,0.12 C 44.05,38.19 43,38 41,38 Z"
       id="path52" />
    <path
       class="cls-3"
       d="M 46.23,27 H 37 a 1,1 0 0 1 0,-2 h 7.23 A 2.94,2.94 0 0 1 42,26 c 1.79,0 3.16,-0.23 4.23,1 z"
       id="path54" />
    <rect
       class="cls-4"
       x="1"
       y="19"
       width="8"
       height="25"
       id="rect56" />
    <path
       class="cls-5"
       d="M 9,19 V 42 H 6 A 3,3 0 0 1 3,39 V 19 Z"
       id="path58" />
    <rect
       class="cls-4"
       x="9"
       y="19"
       width="8"
       height="25"
       id="rect60" />
    <path
       class="cls-5"
       d="M 17,19 V 42 H 14 A 3,3 0 0 1 11,39 V 19 Z"
       id="path62" />
    <path
       class="cls-6"
       d="M 13,41 A 1.0049876,1.0049876 0 1 1 13.2,39 1.0049876,1.0049876 0 0 1 13,41 Z"
       id="path64" />
  </g>
  <metadata
     id="metadata151">
    <rdf:RDF>
      <cc:Work
         rdf:about="">
        <dc:title>like (tumbsup)</dc:title>
      </cc:Work>
    </rdf:RDF>
  </metadata>
</svg>
